<svg xmlns="http://www.w3.org/2000/svg" width="376.53999999999996" height="35" viewBox="0 0 376.53999999999996 35"><rect class="svg__rect" x="0" y="0" width="170.23000000000002" height="35" fill="#71C5DF"/><rect class="svg__rect" x="168.23000000000002" y="0" width="208.30999999999997" height="35" fill="#389AD5"/><path class="svg__text" d="M14.04 18.70L14.04 18.70L14.04 18.21Q14.04 15.97 15.13 14.70Q16.22 13.43 18.27 13.43L18.27 13.43L18.42 13.43L18.42 14.61L18.24 14.61Q17.05 14.62 16.33 15.26Q15.62 15.90 15.48 17.07L15.48 17.07Q16.17 16.35 17.23 16.35L17.23 16.35Q18.37 16.35 19.02 17.15Q19.67 17.95 19.67 19.21L19.67 19.21Q19.67 20.51 18.91 21.31Q18.14 22.12 16.90 22.12L16.90 22.12Q15.62 22.12 14.83 21.17Q14.04 20.23 14.04 18.70ZM15.46 18.47L15.46 18.90Q15.46 19.85 15.86 20.41Q16.26 20.97 16.89 20.97Q17.52 20.97 17.89 20.49Q18.26 20.02 18.26 19.25Q18.26 18.47 17.89 17.99Q17.51 17.50 16.89 17.50L16.89 17.50Q16.42 17.50 16.03 17.76Q15.64 18.03 15.46 18.47L15.46 18.47ZM23.77 18.51L23.77 18.51L23.77 17.03Q23.77 15.19 24.46 14.27Q25.15 13.35 26.56 13.35L26.56 13.35Q27.96 13.35 28.65 14.25Q29.34 15.14 29.36 16.93L29.36 16.93L29.36 18.41Q29.36 20.25 28.67 21.18Q27.98 22.12 26.57 22.12L26.57 22.12Q25.19 22.12 24.49 21.21Q23.79 20.29 23.77 18.51ZM25.19 16.68L25.19 18.61Q25.19 19.81 25.53 20.39Q25.86 20.98 26.57 20.98L26.57 20.98Q27.26 20.98 27.59 20.44Q27.92 19.90 27.93 18.74L27.93 18.74L27.93 16.81Q27.93 15.61 27.61 15.05Q27.28 14.49 26.56 14.49L26.56 14.49Q25.87 14.49 25.54 15.02Q25.21 15.55 25.19 16.68L25.19 16.68ZM39.52 15.53L39.52 15.53L39.52 15.11Q39.52 14.34 40.02 13.84Q40.52 13.35 41.33 13.35L41.33 13.35Q42.15 13.35 42.64 13.84Q43.14 14.34 43.14 15.14L43.14 15.14L43.14 15.56Q43.14 16.33 42.64 16.82Q42.15 17.31 41.34 17.31L41.34 17.31Q40.55 17.31 40.04 16.83Q39.52 16.35 39.52 15.53ZM40.52 15.13L40.52 15.56Q40.52 15.96 40.75 16.21Q40.97 16.46 41.34 16.46L41.34 16.46Q41.70 16.46 41.93 16.21Q42.15 15.96 42.15 15.54L42.15 15.54L42.15 15.11Q42.15 14.71 41.92 14.45Q41.70 14.20 41.33 14.20Q40.96 14.20 40.74 14.46Q40.52 14.71 40.52 15.13L40.52 15.13ZM41.63 21.36L40.90 20.94L45.07 14.27L45.80 14.69L41.63 21.36ZM43.63 20.34L43.63 20.34L43.63 19.91Q43.63 19.12 44.14 18.64Q44.64 18.15 45.44 18.15L45.44 18.15Q46.23 18.15 46.74 18.64Q47.25 19.12 47.25 19.95L47.25 19.95L47.25 20.37Q47.25 21.13 46.76 21.62Q46.27 22.12 45.45 22.12Q44.63 22.12 44.13 21.63Q43.63 21.14 43.63 20.34ZM44.62 19.93L44.62 20.37Q44.62 20.76 44.85 21.02Q45.08 21.27 45.45 21.27L45.45 21.27Q45.82 21.27 46.04 21.03Q46.25 20.79 46.25 20.35L46.25 20.35L46.25 19.91Q46.25 19.50 46.02 19.25Q45.79 19.01 45.44 19.01L45.44 19.01Q45.07 19.01 44.85 19.25Q44.62 19.50 44.62 19.93L44.62 19.93ZM57.32 18.00L57.32 18.00L57.32 17.52Q57.32 16.28 57.76 15.32Q58.20 14.37 59.01 13.86Q59.81 13.35 60.86 13.35Q61.90 13.35 62.71 13.85Q63.51 14.35 63.95 15.29Q64.39 16.23 64.40 17.48L64.40 17.48L64.40 17.96Q64.40 19.21 63.96 20.16Q63.53 21.10 62.72 21.61Q61.92 22.12 60.87 22.12L60.87 22.12Q59.83 22.12 59.02 21.61Q58.21 21.10 57.77 20.17Q57.32 19.23 57.32 18.00ZM58.80 17.46L58.80 17.96Q58.80 19.36 59.35 20.13Q59.90 20.90 60.87 20.90L60.87 20.90Q61.85 20.90 62.38 20.15Q62.91 19.40 62.91 17.96L62.91 17.96L62.91 17.51Q62.91 16.09 62.38 15.34Q61.84 14.58 60.86 14.58L60.86 14.58Q59.90 14.58 59.35 15.33Q58.81 16.09 58.80 17.46L58.80 17.46ZM70.34 22L68.86 22L68.86 13.47L74.28 13.47L74.28 14.66L70.34 14.66L70.34 17.20L73.78 17.20L73.78 18.38L70.34 18.38L70.34 22ZM86.10 14.66L83.46 14.66L83.46 13.47L90.23 13.47L90.23 14.66L87.57 14.66L87.57 22L86.10 22L86.10 14.66ZM95.47 22L93.99 22L93.99 13.47L95.47 13.47L95.47 17.02L99.28 17.02L99.28 13.47L100.76 13.47L100.76 22L99.28 22L99.28 18.21L95.47 18.21L95.47 22ZM111.08 22L105.50 22L105.50 13.47L111.04 13.47L111.04 14.66L106.98 14.66L106.98 17.02L110.49 17.02L110.49 18.19L106.98 18.19L106.98 20.82L111.08 20.82L111.08 22ZM122.93 14.66L120.30 14.66L120.30 13.47L127.06 13.47L127.06 14.66L124.40 14.66L124.40 22L122.93 22L122.93 14.66ZM132.38 22L130.91 22L130.91 13.47L132.38 13.47L132.38 22ZM138.67 22L137.19 22L137.19 13.47L139.12 13.47L141.58 20.01L144.03 13.47L145.95 13.47L145.95 22L144.47 22L144.47 19.19L144.62 15.43L142.10 22L141.04 22L138.52 15.43L138.67 19.19L138.67 22ZM156.27 22L150.69 22L150.69 13.47L156.22 13.47L156.22 14.66L152.17 14.66L152.17 17.02L155.67 17.02L155.67 18.19L152.17 18.19L152.17 20.82L156.27 20.82L156.27 22Z" fill="#FFFFFF"/><path class="svg__text" d="M184.50 22L181.77 13.60L184.22 13.60L185.91 18.96L187.69 13.60L189.87 13.60L191.56 19.01L193.33 13.60L195.60 13.60L192.87 22L190.33 22L188.72 16.89L187.04 22L184.50 22ZM199.68 17.80L199.68 17.80Q199.68 16.55 200.28 15.55Q200.89 14.56 201.95 14.00Q203.01 13.43 204.34 13.43L204.34 13.43Q205.67 13.43 206.74 14.00Q207.80 14.56 208.41 15.55Q209.01 16.55 209.01 17.80L209.01 17.80Q209.01 19.05 208.41 20.04Q207.80 21.04 206.74 21.60Q205.68 22.17 204.34 22.17L204.34 22.17Q203.01 22.17 201.95 21.60Q200.89 21.04 200.28 20.04Q199.68 19.05 199.68 17.80ZM202.08 17.80L202.08 17.80Q202.08 18.51 202.38 19.05Q202.68 19.60 203.20 19.90Q203.71 20.20 204.34 20.20L204.34 20.20Q204.98 20.20 205.50 19.90Q206.01 19.60 206.31 19.05Q206.61 18.51 206.61 17.80L206.61 17.80Q206.61 17.09 206.31 16.54Q206.01 16 205.50 15.70Q204.98 15.40 204.34 15.40L204.34 15.40Q203.71 15.40 203.19 15.70Q202.68 16 202.38 16.54Q202.08 17.09 202.08 17.80ZM216.12 22L213.74 22L213.74 13.60L217.59 13.60Q218.73 13.60 219.57 13.98Q220.40 14.35 220.86 15.06Q221.32 15.76 221.32 16.71L221.32 16.71Q221.32 17.62 220.89 18.30Q220.46 18.98 219.67 19.36L219.67 19.36L221.48 22L218.94 22L217.42 19.77L216.12 19.77L216.12 22ZM216.12 15.47L216.12 17.93L217.44 17.93Q218.17 17.93 218.54 17.61Q218.92 17.29 218.92 16.71L218.92 16.71Q218.92 16.12 218.54 15.79Q218.17 15.47 217.44 15.47L217.44 15.47L216.12 15.47ZM228.46 22L226.11 22L226.11 13.60L228.46 13.60L228.46 17.09L231.71 13.60L234.33 13.60L230.90 17.32L234.51 22L231.75 22L229.35 18.95L228.46 19.90L228.46 22ZM238.03 21.24L238.03 21.24L238.81 19.49Q239.37 19.86 240.12 20.09Q240.86 20.32 241.58 20.32L241.58 20.32Q242.95 20.32 242.95 19.64L242.95 19.64Q242.95 19.28 242.56 19.11Q242.17 18.93 241.30 18.74L241.30 18.74Q240.36 18.53 239.72 18.30Q239.08 18.06 238.63 17.55Q238.18 17.03 238.18 16.16L238.18 16.16Q238.18 15.39 238.59 14.77Q239.01 14.15 239.85 13.79Q240.68 13.43 241.89 13.43L241.89 13.43Q242.72 13.43 243.52 13.62Q244.33 13.80 244.94 14.17L244.94 14.17L244.21 15.93Q243.01 15.28 241.88 15.28L241.88 15.28Q241.17 15.28 240.85 15.49Q240.53 15.70 240.53 16.04L240.53 16.04Q240.53 16.37 240.91 16.54Q241.29 16.71 242.14 16.89L242.14 16.89Q243.10 17.10 243.73 17.33Q244.36 17.56 244.83 18.07Q245.29 18.58 245.29 19.46L245.29 19.46Q245.29 20.21 244.87 20.83Q244.45 21.44 243.61 21.80Q242.77 22.17 241.57 22.17L241.57 22.17Q240.55 22.17 239.59 21.92Q238.63 21.67 238.03 21.24ZM263.58 22L256.84 22L256.84 13.60L263.43 13.60L263.43 15.44L259.19 15.44L259.19 16.85L262.93 16.85L262.93 18.63L259.19 18.63L259.19 20.17L263.58 20.17L263.58 22ZM270.97 22L267.38 13.60L269.95 13.60L272.23 19.07L274.56 13.60L276.91 13.60L273.31 22L270.97 22ZM287.80 22L281.06 22L281.06 13.60L287.65 13.60L287.65 15.44L283.42 15.44L283.42 16.85L287.15 16.85L287.15 18.63L283.42 18.63L283.42 20.17L287.80 20.17L287.80 22ZM294.99 22L292.61 22L292.61 13.60L296.45 13.60Q297.60 13.60 298.43 13.98Q299.27 14.35 299.73 15.06Q300.19 15.76 300.19 16.71L300.19 16.71Q300.19 17.62 299.76 18.30Q299.33 18.98 298.54 19.36L298.54 19.36L300.35 22L297.81 22L296.28 19.77L294.99 19.77L294.99 22ZM294.99 15.47L294.99 17.93L296.31 17.93Q297.04 17.93 297.41 17.61Q297.78 17.29 297.78 16.71L297.78 16.71Q297.78 16.12 297.41 15.79Q297.04 15.47 296.31 15.47L296.31 15.47L294.99 15.47ZM307.10 18.95L303.89 13.60L306.40 13.60L308.39 16.94L310.39 13.60L312.69 13.60L309.47 18.99L309.47 22L307.10 22L307.10 18.95ZM325.54 15.48L322.96 15.48L322.96 13.60L330.48 13.60L330.48 15.48L327.91 15.48L327.91 22L325.54 22L325.54 15.48ZM337.23 22L334.85 22L334.85 13.60L337.23 13.60L337.23 22ZM344.60 22L342.40 22L342.40 13.60L344.36 13.60L347.31 18.45L350.20 13.60L352.15 13.60L352.17 22L349.99 22L349.97 17.55L347.80 21.17L346.75 21.17L344.60 17.67L344.60 22ZM364.08 22L357.33 22L357.33 13.60L363.92 13.60L363.92 15.44L359.69 15.44L359.69 16.85L363.42 16.85L363.42 18.63L359.69 18.63L359.69 20.17L364.08 20.17L364.08 22Z" fill="#FFFFFF" x="181.23000000000002"/></svg>