<svg xmlns="http://www.w3.org/2000/svg" width="166.98" height="35" viewBox="0 0 166.98 35"><rect class="svg__rect" x="0" y="0" width="69.9" height="35" fill="#3B82F3"/><rect class="svg__rect" x="67.9" y="0" width="99.07999999999998" height="35" fill="#FF0000"/><path class="svg__text" d="M15.69 22L14.22 22L14.22 13.47L16.14 13.47L18.60 20.01L21.06 13.47L22.97 13.47L22.97 22L21.49 22L21.49 19.19L21.64 15.43L19.12 22L18.06 22L15.55 15.43L15.69 19.19L15.69 22ZM27.58 19.16L27.58 19.16L27.58 13.47L29.05 13.47L29.05 19.18Q29.05 20.03 29.49 20.48Q29.92 20.93 30.76 20.93L30.76 20.93Q32.48 20.93 32.48 19.13L32.48 19.13L32.48 13.47L33.95 13.47L33.95 19.17Q33.95 20.53 33.08 21.32Q32.21 22.12 30.76 22.12L30.76 22.12Q29.30 22.12 28.44 21.33Q27.58 20.55 27.58 19.16ZM38.25 18.19L38.25 18.19L38.25 17.39Q38.25 16.19 38.68 15.27Q39.11 14.35 39.91 13.85Q40.71 13.35 41.76 13.35L41.76 13.35Q43.17 13.35 44.03 14.12Q44.89 14.89 45.03 16.29L45.03 16.29L43.56 16.29Q43.45 15.37 43.02 14.96Q42.59 14.55 41.76 14.55L41.76 14.55Q40.79 14.55 40.27 15.26Q39.75 15.96 39.74 17.33L39.74 17.33L39.74 18.09Q39.74 19.47 40.24 20.20Q40.73 20.92 41.69 20.92L41.69 20.92Q42.56 20.92 43.00 20.53Q43.44 20.14 43.56 19.22L43.56 19.22L45.03 19.22Q44.90 20.59 44.02 21.35Q43.14 22.12 41.69 22.12L41.69 22.12Q40.67 22.12 39.89 21.63Q39.11 21.15 38.69 20.26Q38.27 19.37 38.25 18.19ZM50.83 22L49.34 22L49.34 13.47L50.83 13.47L50.83 17.02L54.64 17.02L54.64 13.47L56.12 13.47L56.12 22L54.64 22L54.64 18.21L50.83 18.21L50.83 22Z" fill="#FFFFFF"/><path class="svg__text" d="M84.47 22L82.09 22L82.09 13.60L85.93 13.60Q87.07 13.60 87.91 13.98Q88.75 14.35 89.21 15.06Q89.66 15.76 89.66 16.71L89.66 16.71Q89.66 17.62 89.24 18.30Q88.81 18.98 88.02 19.36L88.02 19.36L89.83 22L87.29 22L85.76 19.77L84.47 19.77L84.47 22ZM84.47 15.47L84.47 17.93L85.79 17.93Q86.52 17.93 86.89 17.61Q87.26 17.29 87.26 16.71L87.26 16.71Q87.26 16.12 86.89 15.79Q86.52 15.47 85.79 15.47L85.79 15.47L84.47 15.47ZM95.87 22L93.44 22L97.15 13.60L99.50 13.60L103.21 22L100.74 22L100.08 20.37L96.53 20.37L95.87 22ZM98.31 15.93L97.22 18.61L99.38 18.61L98.31 15.93ZM109.70 22L107.37 22L107.37 13.60L109.32 13.60L113.03 18.07L113.03 13.60L115.36 13.60L115.36 22L113.41 22L109.70 17.52L109.70 22ZM119.93 21.24L119.93 21.24L120.71 19.49Q121.28 19.86 122.02 20.09Q122.76 20.32 123.48 20.32L123.48 20.32Q124.85 20.32 124.86 19.64L124.86 19.64Q124.86 19.28 124.47 19.11Q124.08 18.93 123.21 18.74L123.21 18.74Q122.26 18.53 121.62 18.30Q120.99 18.06 120.53 17.55Q120.08 17.03 120.08 16.16L120.08 16.16Q120.08 15.39 120.50 14.77Q120.92 14.15 121.75 13.79Q122.59 13.43 123.79 13.43L123.79 13.43Q124.62 13.43 125.43 13.62Q126.23 13.80 126.85 14.17L126.85 14.17L126.12 15.93Q124.91 15.28 123.78 15.28L123.78 15.28Q123.07 15.28 122.75 15.49Q122.43 15.70 122.43 16.04L122.43 16.04Q122.43 16.37 122.81 16.54Q123.20 16.71 124.05 16.89L124.05 16.89Q125.01 17.10 125.64 17.33Q126.27 17.56 126.73 18.07Q127.19 18.58 127.19 19.46L127.19 19.46Q127.19 20.21 126.77 20.83Q126.36 21.44 125.51 21.80Q124.67 22.17 123.47 22.17L123.47 22.17Q122.45 22.17 121.49 21.92Q120.53 21.67 119.93 21.24ZM131.34 17.80L131.34 17.80Q131.34 16.55 131.95 15.55Q132.55 14.56 133.61 14.00Q134.68 13.43 136.01 13.43L136.01 13.43Q137.34 13.43 138.40 14.00Q139.46 14.56 140.07 15.55Q140.68 16.55 140.68 17.80L140.68 17.80Q140.68 19.05 140.07 20.04Q139.46 21.04 138.40 21.60Q137.34 22.17 136.01 22.17L136.01 22.17Q134.68 22.17 133.61 21.60Q132.55 21.04 131.95 20.04Q131.34 19.05 131.34 17.80ZM133.74 17.80L133.74 17.80Q133.74 18.51 134.04 19.05Q134.34 19.60 134.86 19.90Q135.37 20.20 136.01 20.20L136.01 20.20Q136.64 20.20 137.16 19.90Q137.68 19.60 137.97 19.05Q138.27 18.51 138.27 17.80L138.27 17.80Q138.27 17.09 137.97 16.54Q137.68 16 137.16 15.70Q136.64 15.40 136.01 15.40L136.01 15.40Q135.37 15.40 134.85 15.70Q134.34 16 134.04 16.54Q133.74 17.09 133.74 17.80ZM147.60 22L145.40 22L145.40 13.60L147.36 13.60L150.31 18.45L153.20 13.60L155.15 13.60L155.17 22L152.99 22L152.97 17.55L150.81 21.17L149.75 21.17L147.60 17.67L147.60 22Z" fill="#FFFFFF" x="80.9"/></svg>